<svg width="374" height="175" viewBox="0 0 374 175" fill="none" xmlns="http://www.w3.org/2000/svg">
<path d="M226.191 56.7771H203.295L198.153 71.04H190.721L211.59 16.3903H217.896L238.802 71.04H231.408L226.191 56.7771ZM205.472 50.8466H224.051L214.743 25.2859L205.472 50.8466ZM248.486 71.04V35.7954H242.068V30.4281H248.486V26.2618C248.486 21.9078 249.65 18.5422 251.977 16.1651C254.304 13.7879 257.594 12.5993 261.848 12.5993C263.45 12.5993 265.039 12.812 266.615 13.2374L266.24 18.8675C265.064 18.6423 263.813 18.5297 262.486 18.5297C260.234 18.5297 258.495 19.1928 257.269 20.519C256.043 21.8202 255.43 23.6969 255.43 26.1492V30.4281H264.1V35.7954H255.43V71.04H248.486ZM291.425 36.6587C290.374 36.4836 289.236 36.396 288.01 36.396C283.455 36.396 280.365 38.3353 278.739 42.2138V71.04H271.795V30.4281H278.551L278.664 35.1198C280.941 31.4915 284.169 29.6774 288.347 29.6774C289.699 29.6774 290.725 29.8525 291.425 30.2029V36.6587ZM295.254 50.3587C295.254 46.3801 296.029 42.8018 297.581 39.6239C299.157 36.446 301.334 33.9938 304.112 32.2672C306.914 30.5407 310.105 29.6774 313.683 29.6774C319.213 29.6774 323.68 31.5916 327.083 35.4201C330.511 39.2486 332.225 44.3407 332.225 50.6965V51.1845C332.225 55.1381 331.462 58.6913 329.935 61.8442C328.434 64.972 326.269 67.4117 323.442 69.1633C320.639 70.9149 317.411 71.7907 313.758 71.7907C308.253 71.7907 303.786 69.8765 300.358 66.048C296.955 62.2195 295.254 57.1524 295.254 50.8466V50.3587ZM302.235 51.1845C302.235 55.6886 303.273 59.3044 305.35 62.0318C307.452 64.7593 310.255 66.1231 313.758 66.1231C317.286 66.1231 320.089 64.7468 322.166 61.9943C324.243 59.2168 325.281 55.3382 325.281 50.3587C325.281 45.9046 324.218 42.3014 322.091 39.5489C319.989 36.7713 317.186 35.3826 313.683 35.3826C310.255 35.3826 307.49 36.7463 305.388 39.4738C303.286 42.2013 302.235 46.1048 302.235 51.1845Z" fill="#BF8F3D"/>
<path d="M229.088 95.9943H211.52V144.72H204.35V95.9943H186.819V90.0631H229.088V95.9943ZM249.209 145.471C243.704 145.471 239.224 143.669 235.77 140.065C232.317 136.436 230.59 131.594 230.59 125.538V124.261C230.59 120.232 231.353 116.641 232.88 113.487C234.431 110.309 236.584 107.832 239.337 106.055C242.114 104.253 245.118 103.352 248.346 103.352C253.626 103.352 257.731 105.091 260.659 108.57C263.587 112.048 265.051 117.029 265.051 123.51V126.401H237.535C237.635 130.405 238.799 133.646 241.026 136.124C243.278 138.576 246.131 139.802 249.585 139.802C252.037 139.802 254.114 139.302 255.816 138.301C257.518 137.3 259.007 135.973 260.283 134.322L264.525 137.625C261.122 142.856 256.016 145.471 249.209 145.471ZM248.346 109.058C245.543 109.058 243.191 110.084 241.289 112.136C239.387 114.163 238.21 117.016 237.76 120.695H258.106V120.169C257.906 116.641 256.955 113.913 255.253 111.986C253.551 110.034 251.249 109.058 248.346 109.058ZM292.755 110.334C291.704 110.159 290.565 110.071 289.339 110.071C284.784 110.071 281.693 112.011 280.066 115.89V144.72H273.122V104.103H279.879L279.991 108.795C282.269 105.166 285.497 103.352 289.676 103.352C291.028 103.352 292.054 103.527 292.755 103.877V110.334ZM333.485 124.862C333.485 131.043 332.071 136.023 329.243 139.802C326.415 143.581 322.586 145.471 317.756 145.471C312.826 145.471 308.947 143.907 306.119 140.778V160.336H299.174V104.103H305.518L305.856 108.607C308.684 105.104 312.613 103.352 317.643 103.352C322.523 103.352 326.377 105.191 329.205 108.87C332.058 112.549 333.485 117.667 333.485 124.224V124.862ZM326.54 124.073C326.54 119.494 325.564 115.877 323.612 113.225C321.66 110.572 318.982 109.246 315.578 109.246C311.374 109.246 308.221 111.11 306.119 114.839V134.247C308.196 137.95 311.374 139.802 315.653 139.802C318.982 139.802 321.622 138.488 323.574 135.861C325.551 133.208 326.54 129.279 326.54 124.073ZM365.993 133.946C365.993 132.069 365.28 130.618 363.854 129.592C362.452 128.541 359.987 127.64 356.458 126.889C352.955 126.138 350.164 125.237 348.087 124.186C346.035 123.135 344.509 121.884 343.507 120.432C342.531 118.981 342.043 117.254 342.043 115.252C342.043 111.923 343.445 109.108 346.248 106.806C349.076 104.503 352.68 103.352 357.059 103.352C361.664 103.352 365.393 104.541 368.246 106.918C371.124 109.296 372.563 112.336 372.563 116.04H365.58C365.58 114.138 364.767 112.499 363.14 111.123C361.539 109.746 359.512 109.058 357.059 109.058C354.531 109.058 352.554 109.608 351.128 110.71C349.701 111.811 348.988 113.25 348.988 115.027C348.988 116.703 349.651 117.967 350.978 118.818C352.304 119.669 354.694 120.482 358.148 121.258C361.626 122.034 364.442 122.96 366.594 124.036C368.746 125.112 370.335 126.413 371.361 127.94C372.413 129.442 372.938 131.281 372.938 133.458C372.938 137.087 371.487 140.003 368.584 142.205C365.681 144.382 361.914 145.471 357.284 145.471C354.031 145.471 351.153 144.895 348.65 143.744C346.148 142.593 344.183 140.991 342.757 138.939C341.355 136.862 340.654 134.622 340.654 132.219H347.599C347.724 134.547 348.65 136.399 350.377 137.775C352.129 139.127 354.431 139.802 357.284 139.802C359.912 139.802 362.014 139.277 363.591 138.226C365.193 137.15 365.993 135.723 365.993 133.946Z" fill="#432E2D"/>
<path d="M141.28 139.39C146.28 137.84 148.66 135.06 148.08 127.92C138.59 96.92 170.64 100.83 168.03 73.3099C137.41 81.9499 142.03 24.79 104.23 29.63C102.23 38.12 89.56 28.98 84.43 26.88C90.83 12.65 42.07 24.78 46 35.2C24.28 45.49 16.14 74.5599 40.15 90.3299C69.84 85.9699 81.91 82.5599 78.71 103.77C100.46 130.24 76.71 129.42 88.49 144.89C92.49 154.81 95.84 167.89 102.37 174.41C116.6 174.95 126.83 165.92 130 156.19C142.05 151.56 125.56 142.93 141.28 139.39Z" fill="#432E2D"/>
<path d="M31.44 64L22.25 65.17C21.5556 65.2384 20.9104 65.5592 20.4367 66.0716C19.963 66.584 19.6938 67.2524 19.68 67.95V115.06C19.6984 115.778 19.9845 116.463 20.4822 116.981C20.9799 117.5 21.6532 117.813 22.37 117.86L31.56 118.66C31.9585 118.706 32.3622 118.669 32.7455 118.55C33.1289 118.432 33.4835 118.236 33.7871 117.974C34.0907 117.711 34.3365 117.389 34.5092 117.027C34.6818 116.665 34.7774 116.271 34.79 115.87V66.81C34.779 66.3968 34.6803 65.9907 34.5006 65.6185C34.3209 65.2463 34.0643 64.9165 33.7476 64.6509C33.4309 64.3852 33.0615 64.1898 32.6637 64.0776C32.2659 63.9655 31.8488 63.939 31.44 64V64Z" fill="#C08F3D"/>
<path d="M113.11 117.89C113.826 117.843 114.498 117.529 114.994 117.011C115.49 116.492 115.774 115.807 115.79 115.09V68C115.779 67.3032 115.512 66.6349 115.04 66.1223C114.567 65.6097 113.923 65.2886 113.23 65.22L104 64C103.594 63.9391 103.18 63.9647 102.785 64.0753C102.39 64.1858 102.022 64.3786 101.707 64.6411C101.391 64.9037 101.135 65.23 100.955 65.5986C100.774 65.9672 100.674 66.3698 100.66 66.78V115.9C100.673 116.3 100.768 116.693 100.94 117.054C101.112 117.416 101.357 117.738 101.659 118C101.962 118.262 102.315 118.458 102.698 118.577C103.08 118.696 103.482 118.734 103.88 118.69L113.11 117.89Z" fill="#C08F3D"/>
<path d="M135 91.3499C135 81.5499 130.75 73.0299 124.68 69.1099C125.5 61.0676 125.01 52.9456 123.23 45.0599C121.303 36.8847 117.5 29.2703 112.12 22.8199C106.683 16.398 99.931 11.218 92.32 7.62994C84.7042 3.9753 76.4366 1.87443 68 1.44995C59.5562 1.8694 51.2811 3.97045 43.66 7.62994C36.0474 11.2153 29.2948 16.3957 23.86 22.8199C18.4738 29.2673 14.6662 36.8825 12.74 45.0599C10.9832 52.8505 10.4869 60.8723 11.27 68.8199C4.97 72.6099 0.509995 81.3199 0.509995 91.3499C0.509995 103.74 7.29001 114.1 15.96 115.69C16.2533 115.738 16.5535 115.72 16.8389 115.637C17.1242 115.554 17.3876 115.409 17.6098 115.212C17.832 115.014 18.0074 114.77 18.1233 114.496C18.2393 114.223 18.2928 113.927 18.28 113.63V69.0699C18.2928 68.7731 18.2393 68.4771 18.1233 68.2035C18.0074 67.9299 17.832 67.6856 17.6098 67.4883C17.3876 67.2911 17.1242 67.1457 16.8389 67.063C16.5535 66.9802 16.2533 66.9621 15.96 67.0099C15.54 67.0899 15.12 67.1999 14.71 67.3199C14.6388 60.2804 15.6506 53.2719 17.71 46.5399C19.947 39.4394 23.8132 32.9603 29 27.6199C34.1136 22.444 40.2841 18.4326 47.09 15.8599C53.7475 13.2777 60.8517 12.0438 67.99 12.2299C75.125 12.0446 82.2258 13.2785 88.88 15.8599C95.6948 18.4325 101.875 22.4435 107 27.6199C112.184 32.9609 116.047 39.4401 118.28 46.5399C120.35 53.3141 121.362 60.3671 121.28 67.45C120.723 67.2682 120.155 67.1213 119.58 67.0099C119.287 66.9621 118.987 66.9802 118.701 67.063C118.416 67.1457 118.152 67.2911 117.93 67.4883C117.708 67.6856 117.533 67.9299 117.417 68.2035C117.301 68.4771 117.247 68.7731 117.26 69.0699V113.63C117.247 113.927 117.301 114.223 117.417 114.496C117.533 114.77 117.708 115.014 117.93 115.212C118.152 115.409 118.416 115.554 118.701 115.637C118.987 115.72 119.287 115.738 119.58 115.69C121.096 115.403 122.554 114.862 123.89 114.09L124.25 122.74L103.25 150.19L91.36 152.06C90.9517 151.139 90.2864 150.356 89.4438 149.804C88.6011 149.253 87.6171 148.956 86.61 148.95H79.42C78.0134 148.966 76.6706 149.539 75.6863 150.544C74.702 151.549 74.1567 152.903 74.17 154.31V155.31C74.1567 156.717 74.702 158.071 75.6863 159.076C76.6706 160.081 78.0134 160.654 79.42 160.67H86.61C87.7157 160.66 88.79 160.301 89.6791 159.643C90.5683 158.986 91.2266 158.064 91.56 157.01L105.88 154.75L129.18 124.33L128.59 110.19C132.47 105.68 135 98.8999 135 91.3499Z" fill="#C08F3D"/>
<path d="M160.68 141.92C169.84 152.12 149.68 162.92 149.68 162.92C144.15 163.72 147.41 157.72 149.38 151.92C152 144 155.41 136.05 160.68 141.92Z" fill="#432E2D"/>
</svg>
